<svg
    xmlns="http://www.w3.org/2000/svg" width="32" height="32" viewBox="0 0 24 24">
    <g fill="none" stroke="#18a058" stroke-width="1.5">
        <path stroke-linecap="round" stroke-linejoin="round" d="M8.5 14.5L5 22M8 6s1-1.061 1-2c0-1.333-1-2-1-2m4 4s1-1.061 1-2c0-1.333-1-2-1-2m4 4s1-1.061 1-2c0-1.333-1-2-1-2"/>
        <path stroke-linejoin="round" d="M16.5 17.5h-9"/>
        <path stroke-linecap="round" stroke-linejoin="round" d="m15.5 14.5l2.1 4.5m.9 3a1.5 1.5 0 1 0 0-3a1.5 1.5 0 0 0 0 3Z"/>
        <path d="M12 15a7 7 0 0 0 6.975-6.4a.563.563 0 0 0-.575-.6H5.6a.563.563 0 0 0-.575.6A7 7 0 0 0 12 15Z"/>
    </g>
</svg>